# Blender 4.4.0
# www.blender.org
mtllib carrot.mtl
o Sphere.015
v -0.051184 -1.048239 -0.299004
v -0.033358 -0.551782 -0.404514
v 0.012205 0.398711 -0.440457
v 0.024633 0.511273 -0.324005
v -0.121244 -1.686864 -0.087197
v -0.144982 -1.551531 -0.150792
v -0.187631 -1.043912 -0.262523
v -0.217938 -0.544110 -0.354305
v -0.232779 0.066614 -0.429333
v -0.194007 0.407282 -0.384364
v -0.131463 0.517761 -0.281545
v -0.050869 0.552149 -0.143024
v -0.152608 -1.686879 -0.052907
v -0.203103 -1.553790 -0.097235
v -0.288037 -1.040399 -0.163246
v -0.352634 -0.536659 -0.218470
v -0.394426 0.075557 -0.266319
v -0.344489 0.415607 -0.232610
v -0.245373 0.524063 -0.166672
v -0.111259 0.555490 -0.082123
v -0.161701 -1.679121 -0.010367
v -0.222911 -1.553255 -0.020589
v -0.327642 -1.042594 -0.026357
v -0.401483 -0.531548 -0.033397
v -0.452895 0.081838 -0.044227
v -0.398919 0.421455 -0.025857
v -0.286575 0.528490 -0.010167
v -0.133102 0.557837 0.000849
v -0.149035 -1.662963 0.031421
v -0.195617 -1.539478 0.053954
v -0.289290 -1.040368 0.112296
v -0.351084 -0.529850 0.151317
v -0.392519 0.083775 0.177435
v -0.342713 0.423258 0.180495
v -0.244028 0.529855 0.146035
v -0.110546 0.558560 0.083660
v -0.118793 -1.648560 0.062412
v -0.136939 -1.520131 0.101414
v -0.183613 -1.029872 0.206950
v -0.215184 -0.532248 0.286152
v -0.229475 0.080850 0.339273
v -0.190931 0.420535 0.331154
v -0.129134 0.527793 0.260079
v -0.049634 0.557467 0.144121
v -0.077396 -1.649319 0.075900
v -0.067231 -1.515993 0.118319
v -0.048564 -1.024576 0.236392
v -0.030178 -0.538085 0.335022
v -0.007451 0.073844 0.397921
v 0.015758 0.414013 0.385752
v 0.027322 0.522857 0.301407
v 0.033312 0.554850 0.166032
v 0.036269 0.591958 0.004519
v -0.033901 -1.661540 0.066471
v 0.002388 -1.526775 0.102461
v 0.082745 -1.029967 0.200317
v 0.154401 -0.545758 0.284813
v 0.214061 0.064637 0.337666
v 0.221970 0.405442 0.329659
v 0.183418 0.516368 0.258947
v 0.116067 0.551410 0.143521
v -0.000208 -1.676203 0.034043
v 0.057506 -1.544763 0.053579
v 0.182853 -1.044325 0.106701
v 0.289097 -0.553209 0.148979
v 0.375708 0.055695 0.174652
v 0.372452 0.397117 0.177904
v 0.297328 0.510067 0.144074
v 0.176457 0.548070 0.082620
v 0.012650 -1.685218 -0.011944
v 0.080687 -1.559458 -0.020151
v 0.227361 -1.062238 -0.027791
v 0.337875 -0.558497 -0.036088
v 0.434176 0.049413 -0.047440
v 0.426882 0.391269 -0.028848
v 0.338530 0.505640 -0.012431
v 0.198300 0.545723 -0.000352
v 0.000483 -1.686218 -0.057794
v 0.061233 -1.560186 -0.097071
v 0.189824 -1.063496 -0.167752
v 0.287745 -0.560191 -0.220935
v 0.373800 0.047476 -0.269102
v 0.370676 0.389466 -0.235200
v 0.295983 0.504275 -0.168633
v 0.175744 0.544999 -0.083163
v -0.032907 -1.680203 -0.089786
v 0.005461 -1.551100 -0.149758
v 0.085212 -1.053004 -0.263665
v 0.151648 -0.557620 -0.355644
v 0.210756 0.050402 -0.430940
v 0.218894 0.392190 -0.385860
v 0.181089 0.506337 -0.282677
v 0.114832 0.546092 -0.143624
v -0.076981 -1.802197 -0.010667
v -0.076785 -1.680405 -0.100501
v -0.068678 -1.547562 -0.167596
v -0.011267 0.057407 -0.489588
v 0.031886 0.548709 -0.165534
v -0.101646 0.492602 -0.193052
v -0.043296 0.674048 -0.175408
v -0.128623 0.494686 -0.134188
v -0.072296 0.676288 -0.112129
v -0.042793 0.490960 -0.166022
v 0.019516 0.683854 -0.146969
v -0.009484 0.686094 -0.083690
v -0.069770 0.493043 -0.107159
v -0.106930 0.874817 -0.125437
v -0.070671 0.872016 -0.204553
v 0.007861 0.884277 -0.168997
v -0.028397 0.887078 -0.089880
v -0.192127 1.055437 -0.170189
v -0.155350 1.052596 -0.250439
v -0.075693 1.065033 -0.214373
v -0.112470 1.067873 -0.134124
v 0.197566 0.443790 -0.034188
v 0.148519 0.628810 -0.034974
v 0.197288 0.442591 -0.098960
v 0.148220 0.627521 -0.104605
v 0.132826 0.446157 -0.033953
v 0.080309 0.642867 -0.034941
v 0.080009 0.641577 -0.104572
v 0.132548 0.444957 -0.098726
v 0.197397 0.823006 -0.117153
v 0.197771 0.824618 -0.030095
v 0.112489 0.842193 -0.030054
v 0.112114 0.840580 -0.117112
v 0.304471 0.997366 -0.121467
v 0.304850 0.999002 -0.033162
v 0.218347 1.016828 -0.033120
v 0.217967 1.015192 -0.121425
v -0.024876 0.438884 0.120829
v -0.007951 0.629365 0.112515
v 0.039576 0.432335 0.120936
v 0.061335 0.622325 0.112630
v -0.023138 0.454959 0.058095
v -0.004983 0.657541 0.048895
v 0.064304 0.650502 0.049010
v 0.041314 0.448411 0.058202
v 0.088114 0.801143 0.202616
v 0.001486 0.809944 0.202472
v 0.005197 0.845173 0.122929
v 0.091825 0.836372 0.123072
v 0.103404 0.947788 0.344554
v 0.015536 0.956715 0.344408
v 0.019300 0.992448 0.263726
v 0.107168 0.983521 0.263872
v -0.152165 0.498823 0.012519
v -0.073146 0.671942 -0.008078
v -0.153413 0.506140 0.076876
v -0.074487 0.679808 0.061107
v -0.087938 0.490635 0.014695
v -0.003563 0.674652 -0.007037
v -0.004904 0.682518 0.062148
v -0.089186 0.497952 0.079052
v -0.090816 0.880599 0.046735
v -0.089139 0.870764 -0.039766
v -0.002141 0.874153 -0.038464
v -0.003818 0.883988 0.048037
v -0.167564 1.069009 0.024453
v -0.165862 1.059034 -0.063286
v -0.077618 1.062471 -0.061966
v -0.079320 1.072447 0.025774
v 0.160309 0.487592 0.104632
v 0.139079 0.676079 0.078932
v 0.188126 0.481950 0.046397
v 0.168983 0.670014 0.016328
v 0.102732 0.496409 0.076275
v 0.079896 0.696831 0.048651
v 0.109800 0.690766 -0.013952
v 0.130549 0.490767 0.018040
v 0.241762 0.858287 0.023156
v 0.204374 0.865871 0.101428
v 0.130378 0.891817 0.063569
v 0.167766 0.884233 -0.014703
v 0.360075 1.020391 0.063271
v 0.322151 1.028084 0.142664
v 0.247096 1.054401 0.104263
v 0.285019 1.046709 0.024870
v 0.056923 0.486139 -0.229338
v 0.092647 0.668907 -0.185087
v 0.000237 0.488791 -0.198087
v 0.031709 0.671758 -0.151491
v 0.088198 0.486058 -0.172603
v 0.126223 0.680369 -0.125157
v 0.065285 0.683219 -0.091561
v 0.031512 0.488710 -0.141352
v 0.010978 0.869350 -0.187794
v 0.087168 0.865786 -0.229798
v 0.129148 0.880116 -0.154869
v 0.052958 0.883680 -0.112865
v -0.031659 1.047550 -0.278962
v 0.045621 1.043935 -0.321567
v 0.088201 1.058470 -0.245566
v 0.010921 1.062086 -0.202960
vn -0.2626 -0.1906 -0.9459
vn -0.1528 -0.5865 -0.7954
vn -0.0218 0.9732 -0.2289
vn -0.2652 -0.1239 -0.9562
vn -0.1814 -0.4393 -0.8798
vn -0.0266 0.9690 -0.2458
vn -0.2533 0.1549 -0.9549
vn -0.2366 -0.2336 -0.9431
vn -0.1546 0.7186 -0.6781
vn -0.7091 -0.1029 -0.6975
vn -0.6256 -0.4337 -0.6485
vn -0.1323 0.9739 -0.1846
vn -0.6949 0.1713 -0.6984
vn -0.6798 -0.2074 -0.7034
vn -0.4651 0.7297 -0.5012
vn -0.7010 -0.1678 -0.6931
vn -0.5956 -0.5902 -0.5450
vn -0.1202 0.9776 -0.1728
vn -0.9448 -0.1935 -0.2644
vn -0.6622 0.7236 -0.1948
vn -0.9542 -0.1462 -0.2608
vn -0.8216 -0.5654 -0.0725
vn -0.1941 0.9778 -0.0788
vn -0.1820 0.9804 -0.0757
vn -0.1944 0.9778 -0.0788
vn -0.9640 -0.0854 -0.2517
vn -0.8874 -0.4219 -0.1858
vn -0.1952 0.9776 -0.0790
vn -0.9526 0.1652 -0.2555
vn -0.7453 -0.5140 0.4247
vn -0.1976 0.9792 0.0453
vn -0.1906 0.9807 0.0434
vn -0.1978 0.9792 0.0453
vn -0.9618 -0.0761 0.2629
vn -0.8394 -0.3820 0.3866
vn -0.1982 0.9791 0.0454
vn -0.9559 0.1379 0.2592
vn -0.9323 -0.1989 0.3020
vn -0.6915 0.6991 0.1822
vn -0.9551 -0.1351 0.2638
vn -0.7003 0.0964 0.7073
vn -0.6166 -0.2130 0.7579
vn -0.5237 0.6593 0.5395
vn -0.6786 -0.1472 0.7196
vn -0.5066 -0.4789 0.7169
vn -0.1376 0.9781 0.1563
vn -0.1374 0.9781 0.1561
vn -0.1377 0.9781 0.1564
vn -0.7030 -0.0776 0.7070
vn -0.5515 -0.3290 0.7666
vn -0.1380 0.9780 0.1567
vn -0.2342 -0.1759 0.9561
vn -0.2807 -0.4735 0.8349
vn -0.0284 0.9742 0.2238
vn -0.0297 0.9731 0.2287
vn -0.0284 0.9742 0.2237
vn -0.2570 -0.0894 0.9623
vn -0.2438 -0.2948 0.9239
vn -0.0283 0.9743 0.2233
vn -0.2535 0.0519 0.9659
vn -0.2054 -0.2229 0.9529
vn -0.1834 0.6142 0.7675
vn 0.1493 -0.3013 0.9418
vn 0.1014 0.9692 0.2245
vn 0.1015 0.9690 0.2252
vn 0.2631 0.0166 0.9646
vn 0.2262 -0.2295 0.9467
vn 0.2363 0.5794 0.7801
vn 0.2503 -0.2019 0.9469
vn 0.0502 -0.4920 0.8691
vn 0.1036 0.9669 0.2331
vn 0.2567 -0.1083 0.9604
vn 0.5999 0.5678 0.5637
vn 0.6723 -0.2147 0.7084
vn 0.4560 -0.5312 0.7140
vn 0.2138 0.9638 0.1591
vn 0.2189 0.9618 0.1643
vn 0.2138 0.9638 0.1592
vn 0.7006 -0.1292 0.7018
vn 0.5576 -0.3536 0.7510
vn 0.2134 0.9640 0.1587
vn 0.7101 0.0001 0.7041
vn 0.6284 -0.2416 0.7394
vn 0.2756 0.9602 0.0454
vn 0.2782 0.9594 0.0461
vn 0.9555 -0.1466 0.2559
vn 0.8399 -0.4255 0.3371
vn 0.2754 0.9603 0.0453
vn 0.9671 0.0068 0.2544
vn 0.9050 -0.2620 0.3352
vn 0.7898 0.5827 0.1915
vn 0.9336 -0.2132 0.2880
vn 0.7530 -0.5734 0.3229
vn 0.9642 0.0349 -0.2629
vn 0.9300 -0.2766 -0.2419
vn 0.7584 0.6163 -0.2120
vn 0.9442 -0.2109 -0.2529
vn 0.7778 -0.5981 -0.1934
vn 0.2709 0.9591 -0.0822
vn 0.2674 0.9601 -0.0812
vn 0.9536 -0.1557 -0.2578
vn 0.8530 -0.4765 -0.2130
vn 0.2712 0.9590 -0.0822
vn 0.6698 -0.2136 -0.7112
vn 0.5000 -0.5911 -0.6329
vn 0.2042 0.9606 -0.1884
vn 0.1974 0.9634 -0.1814
vn 0.2040 0.9607 -0.1882
vn 0.6942 -0.1543 -0.7031
vn 0.5599 -0.4802 -0.6752
vn 0.2047 0.9604 -0.1888
vn 0.7031 0.0765 -0.7070
vn 0.6371 -0.2676 -0.7229
vn 0.5373 0.6565 -0.5294
vn 0.1971 -0.4560 -0.8679
vn 0.0958 0.9641 -0.2477
vn 0.2571 0.1203 -0.9589
vn 0.2275 -0.2534 -0.9402
vn 0.2045 0.6928 -0.6915
vn 0.2414 -0.2092 -0.9476
vn 0.1954 -0.5824 -0.7891
vn 0.0921 0.9681 -0.2329
vn 0.2486 -0.1428 -0.9580
vn -0.8584 0.3154 -0.4046
vn -0.8961 -0.1834 -0.4042
vn 0.4169 -0.0454 -0.9078
vn -0.0365 -0.9992 0.0187
vn 0.8579 -0.3171 0.4044
vn -0.4158 0.0189 0.9093
vn -0.4160 0.0290 0.9089
vn 0.4210 -0.0749 -0.9040
vn 0.9060 0.0979 0.4118
vn -0.4111 -0.0106 0.9115
vn -0.1148 0.9895 -0.0876
vn -0.8089 -0.4693 -0.3541
vn 0.8113 0.4642 0.3554
vn 0.4168 -0.0354 -0.9083
vn 0.9666 0.2562 -0.0089
vn 0.9698 -0.2439 0.0003
vn 0.0027 0.0054 1.0000
vn -0.9661 -0.2579 0.0089
vn -0.0059 -0.0317 -0.9995
vn -0.0050 -0.0217 -0.9998
vn -0.0044 -0.0238 0.9997
vn -0.9872 0.1593 0.0013
vn -0.0130 -0.0608 -0.9981
vn 0.2018 0.9792 -0.0190
vn 0.8522 -0.5232 0.0060
vn -0.8552 0.5183 -0.0059
vn 0.0036 0.0153 0.9999
vn 0.0027 0.0434 0.9991
vn -0.0465 -0.4435 0.8951
vn -0.9960 0.0886 -0.0061
vn -0.0975 -0.9634 -0.2496
vn -0.0029 -0.0451 -0.9990
vn 0.9935 -0.1135 -0.0028
vn 0.9946 -0.1040 0.0003
vn -0.9979 0.0617 -0.0192
vn 0.0386 0.3649 -0.9302
vn 0.9900 -0.1402 -0.0159
vn 0.0917 0.9089 0.4068
vn -0.0713 -0.6899 0.7204
vn 0.0709 0.6857 -0.7244
vn -0.9952 0.0981 -0.0030
vn -0.9107 0.4081 -0.0641
vn -0.9966 -0.0818 -0.0100
vn 0.0187 -0.1261 -0.9918
vn -0.1293 -0.9855 0.1095
vn 0.9100 -0.4097 0.0642
vn -0.0198 0.0998 0.9948
vn -0.0191 0.1097 0.9938
vn 0.0208 -0.1557 -0.9876
vn 0.9998 -0.0040 0.0198
vn -0.0176 0.0700 0.9974
vn -0.0370 0.9928 -0.1136
vn -0.9268 -0.3746 0.0246
vn 0.9290 0.3693 -0.0240
vn 0.0194 -0.1162 -0.9930
vn 0.8969 0.1574 0.4132
vn 0.8358 -0.3388 0.4321
vn -0.4325 0.0742 0.8986
vn -0.1605 -0.9869 0.0190
vn -0.8968 -0.1591 -0.4129
vn 0.4262 -0.1000 -0.8991
vn 0.4284 -0.0902 -0.8991
vn -0.4422 0.0460 0.8957
vn -0.8622 0.2566 -0.4367
vn 0.4158 -0.1281 -0.9004
vn 0.3057 0.9506 0.0539
vn 0.6949 -0.6038 0.3905
vn -0.6982 0.5993 -0.3916
vn -0.4304 0.0840 0.8987
vn -0.4512 0.2923 -0.8432
vn -0.4798 -0.2070 -0.8526
vn 0.8750 -0.0541 -0.4811
vn 0.4509 -0.2940 0.8428
vn -0.8748 0.0277 0.4836
vn -0.8748 0.0377 0.4829
vn 0.8761 -0.0835 -0.4749
vn 0.4836 0.1219 0.8668
vn -0.8723 -0.0017 0.4890
vn -0.0442 0.9855 -0.1637
vn -0.4383 -0.4903 -0.7534
vn 0.4394 0.4853 0.7559
vn 0.8751 -0.0441 -0.4819
vt 0.102244 0.376444
vt 0.469446 0.552004
vt 0.469446 0.552004
vt 0.485195 0.572848
vt 0.485195 0.572848
vt 0.485195 0.549688
vt 0.485195 0.549688
vt 0.503970 0.561950
vt 0.503970 0.561950
vt 0.516693 0.547371
vt 0.516693 0.547371
vt 0.477321 0.558952
vt 0.477321 0.558952
s 1
usemtl 1texture
f 2/1/1 1/1/1 7/1/1 8/1/1
f 95/1/2 94/1/2 5/1/2
f 98/1/3 4/1/3 11/1/3 12/1/3
f 97/1/4 2/1/4 8/1/4 9/1/4
f 96/1/5 95/1/5 5/1/5 6/1/5
f 53/1/6 98/1/6 12/1/6
f 3/1/7 97/1/7 9/1/7 10/1/7
f 1/1/8 96/1/8 6/1/8 7/1/8
f 4/1/9 3/1/9 10/1/9 11/1/9
f 9/1/10 8/1/10 16/1/10 17/1/10
f 6/1/11 5/1/11 13/1/11 14/1/11
f 53/1/12 12/1/12 20/1/12
f 10/1/13 9/1/13 17/1/13 18/1/13
f 7/1/14 6/1/14 14/1/14 15/1/14
f 11/1/15 10/1/15 18/1/15 19/1/15
f 8/1/16 7/1/16 15/1/16 16/1/16
f 5/1/17 94/1/17 13/1/17
f 12/1/18 11/1/18 19/1/18 20/1/18
f 15/1/19 14/1/19 22/1/19 23/1/19
f 19/1/20 18/1/20 26/1/20 27/1/20
f 16/1/21 15/1/21 23/1/21 24/1/21
f 13/1/22 94/1/22 21/1/22
f 20/1/23 19/1/24 27/1/24 28/1/25
f 17/1/26 16/1/26 24/1/26 25/1/26
f 14/1/27 13/1/27 21/1/27 22/1/27
f 53/1/28 20/1/23 28/1/25
f 18/1/29 17/1/29 25/1/29 26/1/29
f 21/1/30 94/1/30 29/1/30
f 28/1/31 27/1/32 35/1/32 36/1/33
f 25/1/34 24/1/34 32/1/34 33/1/34
f 22/1/35 21/1/35 29/1/35 30/1/35
f 53/1/36 28/1/31 36/1/33
f 26/1/37 25/1/37 33/1/37 34/1/37
f 23/1/38 22/1/38 30/1/38 31/1/38
f 27/1/39 26/1/39 34/1/39 35/1/39
f 24/1/40 23/1/40 31/1/40 32/1/40
f 34/1/41 33/1/41 41/1/41 42/1/41
f 31/1/42 30/1/42 38/1/42 39/1/42
f 35/1/43 34/1/43 42/1/43 43/1/43
f 32/1/44 31/1/44 39/1/44 40/1/44
f 29/1/45 94/1/45 37/1/45
f 36/1/46 35/1/47 43/1/47 44/1/48
f 33/1/49 32/1/49 40/1/49 41/1/49
f 30/1/50 29/1/50 37/1/50 38/1/50
f 53/1/51 36/1/46 44/1/48
f 40/1/52 39/1/52 47/1/52 48/1/52
f 37/1/53 94/1/53 45/1/53
f 44/1/54 43/1/55 51/1/55 52/1/56
f 41/1/57 40/1/57 48/1/57 49/1/57
f 38/1/58 37/1/58 45/1/58 46/1/58
f 53/1/59 44/1/54 52/1/56
f 42/1/60 41/1/60 49/1/60 50/1/60
f 39/1/61 38/1/61 46/1/61 47/1/61
f 43/1/62 42/1/62 50/1/62 51/1/62
f 46/1/63 45/1/63 54/1/63 55/1/63
f 53/1/64 52/1/65 61/1/65
f 50/1/66 49/1/66 58/1/66 59/1/66
f 47/1/67 46/1/67 55/1/67 56/1/67
f 51/1/68 50/1/68 59/1/68 60/1/68
f 48/1/69 47/1/69 56/1/69 57/1/69
f 45/1/70 94/1/70 54/1/70
f 52/1/65 51/1/71 60/1/71 61/1/65
f 49/1/72 48/1/72 57/1/72 58/1/72
f 60/1/73 59/1/73 67/1/73 68/1/73
f 57/1/74 56/1/74 64/1/74 65/1/74
f 54/1/75 94/1/75 62/1/75
f 61/1/76 60/1/77 68/1/77 69/1/78
f 58/1/79 57/1/79 65/1/79 66/1/79
f 55/1/80 54/1/80 62/1/80 63/1/80
f 53/1/81 61/1/76 69/1/78
f 59/1/82 58/1/82 66/1/82 67/1/82
f 56/1/83 55/1/83 63/1/83 64/1/83
f 69/1/84 68/1/85 76/1/85 77/1/84
f 66/1/86 65/1/86 73/1/86 74/1/86
f 63/1/87 62/1/87 70/1/87 71/1/87
f 53/1/88 69/1/84 77/1/84
f 67/1/89 66/1/89 74/1/89 75/1/89
f 64/1/90 63/1/90 71/1/90 72/1/90
f 68/1/91 67/1/91 75/1/91 76/1/91
f 65/1/92 64/1/92 72/1/92 73/1/92
f 62/1/93 94/1/93 70/1/93
f 75/1/94 74/1/94 82/1/94 83/1/94
f 72/1/95 71/1/95 79/1/95 80/1/95
f 76/1/96 75/1/96 83/1/96 84/1/96
f 73/1/97 72/1/97 80/1/97 81/1/97
f 70/1/98 94/1/98 78/1/98
f 77/1/99 76/1/100 84/1/100 85/1/99
f 74/1/101 73/1/101 81/1/101 82/1/101
f 71/1/102 70/1/102 78/1/102 79/1/102
f 53/1/103 77/1/99 85/1/99
f 81/1/104 80/1/104 88/1/104 89/1/104
f 78/1/105 94/1/105 86/1/105
f 85/1/106 84/1/107 92/1/107 93/1/108
f 82/1/109 81/1/109 89/1/109 90/1/109
f 79/1/110 78/1/110 86/1/110 87/1/110
f 53/1/111 85/1/106 93/1/108
f 83/1/112 82/1/112 90/1/112 91/1/112
f 80/1/113 79/1/113 87/1/113 88/1/113
f 84/1/114 83/1/114 91/1/114 92/1/114
f 87/1/115 86/1/115 95/1/115 96/1/115
f 53/1/116 93/1/116 98/1/116
f 91/1/117 90/1/117 97/1/117 3/1/117
f 88/1/118 87/1/118 96/1/118 1/1/118
f 92/1/119 91/1/119 3/1/119 4/1/119
f 89/1/120 88/1/120 1/1/120 2/1/120
f 86/1/121 94/1/121 95/1/121
f 93/1/122 92/1/122 4/1/122 98/1/122
f 90/1/123 89/1/123 2/1/123 97/1/123
f 101/2/124 102/3/124 100/2/124 99/2/124
f 100/2/125 102/3/125 107/3/125 108/2/125
f 99/2/126 100/2/126 104/2/126 103/2/126
f 101/2/127 99/2/127 103/2/127 106/3/127
f 105/3/128 106/3/128 103/2/128 104/2/128
f 101/2/129 106/3/129 105/3/129 102/3/129
f 107/3/130 110/3/130 114/3/130 111/3/130
f 104/2/131 100/2/131 108/2/131 109/2/131
f 105/3/132 104/2/132 109/2/132 110/3/132
f 102/3/133 105/3/133 110/3/133 107/3/133
f 112/2/134 111/3/134 114/3/134 113/2/134
f 108/2/135 107/3/135 111/3/135 112/2/135
f 110/3/136 109/2/136 113/2/136 114/3/136
f 109/2/137 108/2/137 112/2/137 113/2/137
f 117/4/138 118/5/138 116/4/138 115/4/138
f 116/4/139 118/5/139 123/5/139 124/4/139
f 115/4/140 116/4/140 120/4/140 119/4/140
f 117/4/127 115/4/127 119/4/127 122/5/127
f 121/5/141 122/5/141 119/4/141 120/4/141
f 117/4/142 122/5/142 121/5/142 118/5/142
f 123/5/143 126/5/143 130/5/143 127/5/143
f 120/4/144 116/4/144 124/4/144 125/4/144
f 121/5/145 120/4/145 125/4/145 126/5/145
f 118/5/146 121/5/146 126/5/146 123/5/146
f 128/4/147 127/5/147 130/5/147 129/4/147
f 124/4/148 123/5/148 127/5/148 128/4/148
f 126/5/149 125/4/149 129/4/149 130/5/149
f 125/4/150 124/4/150 128/4/150 129/4/150
f 133/6/151 134/7/151 132/6/151 131/6/151
f 132/6/152 134/7/152 139/7/152 140/6/152
f 131/6/153 132/6/153 136/6/153 135/6/153
f 133/6/154 131/6/154 135/6/154 138/7/154
f 137/7/155 138/7/155 135/6/155 136/6/155
f 133/6/156 138/7/156 137/7/156 134/7/156
f 139/7/157 142/7/157 146/7/157 143/7/157
f 136/6/158 132/6/158 140/6/158 141/6/158
f 137/7/159 136/6/159 141/6/159 142/7/159
f 134/7/160 137/7/160 142/7/160 139/7/160
f 144/6/161 143/7/161 146/7/161 145/6/161
f 140/6/162 139/7/162 143/7/162 144/6/162
f 142/7/163 141/6/163 145/6/163 146/7/163
f 141/6/164 140/6/164 144/6/164 145/6/164
f 149/8/165 150/9/165 148/8/165 147/8/165
f 148/8/166 150/9/166 155/9/166 156/8/166
f 147/8/167 148/8/167 152/8/167 151/8/167
f 149/8/168 147/8/168 151/8/168 154/9/168
f 153/9/169 154/9/169 151/8/169 152/8/169
f 149/8/170 154/9/170 153/9/170 150/9/170
f 155/9/171 158/9/171 162/9/171 159/9/171
f 152/8/172 148/8/172 156/8/172 157/8/172
f 153/9/173 152/8/173 157/8/173 158/9/173
f 150/9/174 153/9/174 158/9/174 155/9/174
f 160/8/175 159/9/175 162/9/175 161/8/175
f 156/8/176 155/9/176 159/9/176 160/8/176
f 158/9/177 157/8/177 161/8/177 162/9/177
f 157/8/178 156/8/178 160/8/178 161/8/178
f 165/10/179 166/11/179 164/10/179 163/10/179
f 164/10/180 166/11/180 171/11/180 172/10/180
f 163/10/181 164/10/181 168/10/181 167/10/181
f 165/10/182 163/10/182 167/10/182 170/11/182
f 169/11/183 170/11/183 167/10/183 168/10/183
f 165/10/184 170/11/184 169/11/184 166/11/184
f 171/11/185 174/11/185 178/11/185 175/11/185
f 168/10/186 164/10/186 172/10/186 173/10/186
f 169/11/187 168/10/187 173/10/187 174/11/187
f 166/11/188 169/11/188 174/11/188 171/11/188
f 176/10/189 175/11/189 178/11/189 177/10/189
f 172/10/190 171/11/190 175/11/190 176/10/190
f 174/11/191 173/10/191 177/10/191 178/11/191
f 173/10/192 172/10/192 176/10/192 177/10/192
f 181/12/193 182/13/193 180/12/193 179/12/193
f 180/12/194 182/13/194 187/13/194 188/12/194
f 179/12/195 180/12/195 184/12/195 183/12/195
f 181/12/127 179/12/127 183/12/127 186/13/127
f 185/13/196 186/13/196 183/12/196 184/12/196
f 181/12/197 186/13/197 185/13/197 182/13/197
f 187/13/198 190/13/198 194/13/198 191/13/198
f 184/12/199 180/12/199 188/12/199 189/12/199
f 185/13/200 184/12/200 189/12/200 190/13/200
f 182/13/201 185/13/201 190/13/201 187/13/201
f 192/12/202 191/13/202 194/13/202 193/12/202
f 188/12/203 187/13/203 191/13/203 192/12/203
f 190/13/204 189/12/204 193/12/204 194/13/204
f 189/12/205 188/12/205 192/12/205 193/12/205
