# Blender 4.4.0
# www.blender.org
mtllib penguin_w_texture_w_walk.mtl
o Cube.003
v -0.237371 0.070497 0.525179
v -0.985098 0.051305 0.463488
v -0.400490 0.013264 -0.495198
v -0.451742 0.273864 -0.254785
v -0.741340 0.016066 -0.513569
v -0.623643 0.276449 -0.263122
v -0.487004 0.064673 0.505013
v -0.619279 0.258260 0.411528
v -0.736051 0.057989 0.484250
v -0.878018 0.064620 0.679890
v -0.628252 0.070893 0.692165
v -0.380174 0.078103 0.726263
v 0.173320 0.051429 0.530078
v 0.916875 0.015380 0.449612
v 0.304023 -0.005371 -0.493782
v 0.371122 0.247357 -0.252556
v 0.663805 0.005140 -0.518267
v 0.551167 0.253574 -0.257590
v 0.421582 0.039855 0.503023
v 0.554770 0.229307 0.402619
v 0.669844 0.028282 0.475968
v 0.816968 0.035835 0.667725
v 0.567759 0.046858 0.686323
v 0.320993 0.059299 0.726736
v 0.011588 1.791869 0.015284
v 0.556043 1.859200 -0.677421
v 0.710222 1.814965 0.381511
v 0.010070 1.791848 0.898840
v -0.712854 1.829873 0.312847
v -0.401134 1.880845 -0.691708
v 0.912635 2.697649 -0.149430
v 0.509678 2.682010 0.805796
v -0.530365 2.730995 0.715622
v -0.774072 2.765177 -0.293751
v 0.129499 2.737343 -0.852999
v 0.078204 3.272570 0.048766
v 0.505508 1.790004 0.190564
v 0.315492 1.827711 -0.402199
v 0.724974 1.811024 -0.150712
v 0.012762 1.878320 -0.825809
v -0.325481 1.843450 -0.380495
v 0.045512 1.778077 0.529539
v 0.420765 1.780139 0.740680
v -0.466254 1.797534 0.214912
v -0.474223 1.765452 0.698423
v -0.568530 1.827174 -0.242840
v 0.393529 2.293195 -0.890838
v -0.228614 2.316436 -0.926863
v 1.011881 2.262318 0.141193
v 0.873316 2.274019 -0.480790
v 0.276159 2.238485 0.993273
v 0.787943 2.224602 0.680794
v -0.796823 2.287364 0.581851
v -0.330036 2.261072 0.957207
v -0.746871 2.326520 -0.583821
v -0.961149 2.311829 0.010590
v 0.609656 2.792393 -0.598929
v 0.831322 2.758119 0.382588
v 0.006097 2.505524 0.952426
v -0.770477 2.830188 0.239090
v -0.382850 2.835396 -0.687458
v 0.582511 3.102852 -0.072824
v 0.117013 3.132636 -0.478120
v 0.341992 3.101318 0.495734
v -0.273051 3.130587 0.442659
v -0.412101 3.149943 -0.159212
v 0.087923 2.242085 1.571285
v -0.211877 2.254360 1.575579
v -0.072819 2.246258 1.674781
v -0.037019 0.020315 -0.027103
v 0.312466 0.617523 -0.819450
v 0.217795 0.563385 0.841800
v -0.767651 0.605027 0.443481
v -0.556083 1.585996 0.666932
v -0.709607 1.704710 -0.220784
v -0.202952 1.541214 -0.862906
v 0.021433 2.030953 0.021950
v 0.464538 0.165354 0.121781
v 0.233643 0.224859 -0.462175
v 0.701592 0.517124 -0.403974
v -0.238596 0.541012 -0.829553
v -0.525182 0.216667 0.175960
v -0.328405 0.509480 0.761821
v 0.663245 1.062671 -0.714785
v 0.545684 0.992018 0.812464
v -0.628610 1.019543 0.739854
v -0.030778 1.001966 0.972951
v -0.965079 1.055509 0.219626
v 0.449894 1.609360 -0.708928
v 0.169453 1.536911 0.767492
v -0.588983 1.654993 -0.614885
v 0.526867 1.896903 -0.097967
v -0.028750 1.949113 -0.497396
v 0.309402 1.851203 0.445731
v -0.255290 1.829263 0.461259
v -0.498729 1.911858 -0.092924
v -1.439431 0.585339 0.190544
v -1.200291 1.157292 -0.259417
v -1.472869 0.628089 -0.029629
v -0.994623 0.972451 0.539778
v -0.698905 0.627426 -0.602588
v 0.855829 0.558639 0.085631
v 0.670031 1.589498 0.626909
v 0.728939 1.680956 -0.218822
v -0.388014 0.192442 -0.395568
v -0.854894 0.542788 -0.128432
v 0.612308 0.465546 0.528268
v -0.542363 1.092417 -0.858304
v 0.091187 1.083014 -0.993035
v 0.893345 0.983277 0.392262
v 0.993664 1.036834 -0.103534
v 0.373412 1.596394 -0.747821
v -0.496890 1.911697 -0.097147
v -0.263410 1.839838 0.455348
v 0.305240 1.845927 0.458790
v 0.527776 1.898490 -0.096723
v 1.490208 0.594007 0.155483
v 1.218131 1.148736 -0.248450
v 1.507748 0.635845 -0.064971
v 1.081414 0.976233 0.487826
v 0.013532 0.171115 0.507363
v -0.929167 1.088181 -0.397193
v 1.211465 1.128433 -0.247625
v 1.501199 0.615479 -0.064649
v 1.074902 0.955909 0.488557
v -1.208001 1.114428 -0.278871
v -1.002559 0.929421 0.520947
vn -0.7931 0.5686 -0.2184
vn 0.0452 0.6820 -0.7300
vn 0.0128 -0.9988 0.0475
vn -0.8303 -0.3631 0.4229
vn 0.6223 0.6417 0.4483
vn 0.2474 0.9678 0.0468
vn 0.7804 -0.2464 0.5747
vn -0.7471 0.5636 0.3524
vn 0.7871 0.5792 -0.2119
vn -0.0605 0.7036 -0.7080
vn -0.0223 -0.9990 0.0398
vn 0.8346 -0.3708 0.4075
vn -0.5989 0.6608 0.4524
vn -0.2263 0.9724 0.0560
vn -0.7694 -0.2218 0.5990
vn 0.7659 0.5561 0.3226
vn 0.0212 -0.9973 -0.0702
vn -0.0032 -0.9932 -0.1164
vn 0.0059 -0.9996 -0.0272
vn -0.0224 -0.9994 -0.0253
vn -0.0487 -0.9949 -0.0882
vn 0.2344 -0.3569 -0.9043
vn 0.8355 -0.5488 0.0272
vn 0.3236 -0.3763 0.8681
vn -0.8070 -0.4023 0.4323
vn -0.7788 -0.5188 -0.3525
vn 0.6410 -0.1318 -0.7562
vn 0.8556 -0.4013 0.3270
vn -0.0648 -0.1693 0.9834
vn -0.9156 -0.3150 0.2499
vn -0.5410 -0.2234 -0.8108
vn 0.6977 0.6321 -0.3370
vn 0.5633 0.6249 0.5405
vn -0.0962 0.6029 0.7920
vn -0.7118 0.6977 -0.0803
vn -0.1031 0.6827 -0.7234
vn -0.1275 0.9562 -0.2634
vn -0.2764 0.8189 -0.5029
vn -0.5703 0.6915 -0.4434
vn -0.2794 0.9554 0.0953
vn -0.5564 0.8164 0.1548
vn -0.5893 0.6788 0.4382
vn 0.0143 0.9365 0.3504
vn -0.0380 0.6213 0.7826
vn 0.0225 0.6002 0.7995
vn 0.3476 0.9257 0.1495
vn 0.5941 0.7635 0.2534
vn 0.7788 0.6254 0.0479
vn 0.2602 0.9378 -0.2299
vn 0.4343 0.7854 -0.4411
vn 0.2891 0.6635 -0.6900
vn -0.2262 0.3518 -0.9083
vn -0.5358 0.2171 -0.8159
vn -0.6915 0.3681 -0.6215
vn -0.9324 0.3595 -0.0376
vn -0.9347 0.2211 0.2783
vn -0.8089 0.3415 0.4787
vn -0.2472 0.3576 0.9006
vn 0.6703 0.7106 0.2139
vn 0.1643 0.3094 0.9366
vn 0.7387 0.2821 0.6122
vn 0.9106 0.1428 0.3879
vn 0.9500 0.2914 0.1121
vn 0.8182 0.3051 -0.4872
vn 0.6452 0.1578 -0.7475
vn 0.4144 0.3190 -0.8523
vn -0.9297 0.1613 -0.3312
vn -0.8117 -0.4981 -0.3049
vn -0.8104 -0.5478 -0.2078
vn -0.6162 0.1362 0.7758
vn -0.6194 -0.2142 0.7553
vn -0.3408 -0.3553 0.8704
vn 0.5209 0.0848 0.8494
vn 0.4919 -0.2960 0.8188
vn 0.6951 -0.5054 0.5112
vn 0.9734 0.0781 -0.2154
vn 0.8805 -0.4277 -0.2042
vn 0.8206 -0.4820 -0.3073
vn 0.0619 0.1212 -0.9907
vn 0.0493 -0.1986 -0.9788
vn -0.2891 -0.3636 -0.8856
vn -0.0009 -0.9929 -0.1191
vn 0.0268 -0.9971 -0.0706
vn -0.1425 -0.9893 -0.0322
vn -0.1562 -0.9854 -0.0680
vn 0.0027 -0.9978 -0.0662
vn 0.0375 -0.9985 0.0408
vn -0.0147 -0.9992 0.0359
vn 0.0143 -0.9998 -0.0157
vn 0.1204 -0.9927 0.0007
vn -0.0415 -0.9931 -0.1093
vn -0.0278 -0.9947 -0.0990
vn -0.0280 -0.9940 -0.1057
vn 0.1114 -0.9937 0.0104
vn -0.0021 -0.9980 -0.0628
vn 0.0191 -0.9951 -0.0971
vn -0.1712 0.9331 0.3162
vn -0.0384 -0.9992 -0.0058
vn -0.5828 0.8037 0.1201
vn 0.2495 0.9025 0.3512
vn 0.3316 -0.9163 -0.2245
vn 0.1078 -0.6808 -0.7245
vn 0.2003 -0.9477 0.2485
vn -0.2534 -0.9245 0.2848
vn -0.3923 -0.9182 -0.0552
vn 0.0621 -0.3227 -0.9445
vn -0.6005 -0.3219 0.7320
vn -0.8385 -0.1015 0.5353
vn -0.0547 0.6832 0.7281
vn -0.7474 0.6292 0.2134
vn -0.2269 0.7019 -0.6752
vn -0.1928 0.9720 -0.1345
vn -0.2692 0.9283 0.2566
vn -0.4521 0.8316 0.3225
vn -0.0244 0.9143 0.4044
vn 0.2946 0.9352 0.1965
vn 0.2141 0.9615 -0.1722
vn -0.4414 0.3253 -0.8363
vn -0.8624 0.3970 -0.3140
vn -0.8521 0.4787 0.2114
vn -0.8211 0.1751 0.5432
vn -0.1006 0.3893 0.9156
vn -0.9381 0.3445 -0.0364
vn -0.9838 -0.1666 -0.0661
vn -0.9308 -0.3200 0.1768
vn -0.3542 0.1639 0.9207
vn -0.3622 -0.1737 0.9158
vn -0.1036 -0.3384 0.9353
vn 0.6420 -0.3449 -0.6847
vn -0.7718 -0.6086 0.1840
vn -0.5213 -0.6803 0.5151
vn -0.3804 -0.7698 0.5125
vn -0.0507 -0.6325 0.7729
vn -0.0273 -0.7748 -0.6317
vn 0.0017 -0.9054 -0.4246
vn 0.5325 -0.7946 -0.2915
vn 0.4759 -0.6423 -0.6009
vn -0.4372 -0.6217 -0.6499
vn -0.4666 -0.3004 -0.8319
vn 0.8480 -0.3575 0.3913
vn 0.8566 -0.2086 -0.4719
vn -0.7622 -0.0955 -0.6403
vn 0.2635 -0.1362 0.9550
vn 0.9626 -0.2094 0.1722
vn 0.1346 0.6701 0.7300
vn 0.7619 0.6361 0.1219
vn 0.0903 0.6430 -0.7606
vn 0.2114 0.9621 -0.1720
vn 0.4045 0.7892 -0.4621
vn 0.5092 0.7283 -0.4586
vn 0.2925 0.9339 0.2055
vn 0.4686 0.8420 0.2674
vn -0.0122 0.9179 0.3967
vn -0.0119 0.7093 0.7048
vn -0.2689 0.9340 0.2351
vn -0.1927 0.9720 -0.1345
vn -0.3742 0.8556 -0.3577
vn 0.1498 0.3579 -0.9217
vn 0.4353 0.1818 -0.8817
vn 0.7430 0.3689 -0.5584
vn 0.9129 0.3942 0.1062
vn 0.9401 0.2617 0.2185
vn 0.2386 0.2424 0.9404
vn 0.2632 0.2585 0.9295
vn -0.7501 0.2093 -0.6273
vn 0.8518 0.2697 -0.4491
vn 0.8985 -0.3589 -0.2526
vn 0.7703 0.0374 0.6366
vn 0.7453 -0.2412 0.6216
vn 0.5278 -0.3508 0.7736
vn -0.8919 -0.2917 -0.3455
vn -0.2038 0.1442 -0.9683
vn -0.2075 -0.1646 -0.9643
vn 0.6987 -0.6729 0.2429
vn 0.3251 -0.7059 0.6293
vn 0.4301 -0.1288 -0.8936
vn -0.6392 -0.7594 -0.1212
vn -0.6811 -0.6485 -0.3398
vn 0.8012 0.5187 0.2985
vn 0.7756 0.6046 0.1812
vn -0.5837 0.7640 -0.2750
vn 0.6926 -0.7037 -0.1585
vn 0.3798 -0.8047 0.4562
vn -0.8012 -0.5189 -0.2980
vn -0.7854 -0.5943 -0.1729
vn 0.2559 -0.0473 0.9655
vn 0.5402 -0.1433 0.8293
vn 0.9519 -0.3059 0.0177
vn 0.3435 -0.1378 -0.9290
vn -0.0770 -0.0153 -0.9969
vn -0.7700 0.5731 0.2804
vn 0.7750 -0.5669 -0.2793
vn -0.4139 -0.2998 0.8595
vn 0.3599 -0.4290 0.8285
vn -0.4244 0.4364 -0.7934
vn -0.8888 0.3121 -0.3355
vt 0.841146 0.363431
vt 0.913797 0.399383
vt 0.841146 0.403640
vt 0.755801 0.624914
vt 0.766180 0.580342
vt 0.780026 0.580342
vt 0.783296 0.624914
vt 0.499557 0.730862
vt 0.486095 0.810809
vt 0.458641 0.811081
vt 0.439788 0.731453
vt 0.449589 0.714441
vt 0.459711 0.731256
vt 0.469522 0.715318
vt 0.479634 0.731059
vt 0.489439 0.714441
vt 0.206092 0.967552
vt 0.206092 0.926570
vt 0.217953 0.958473
vt 0.344894 0.957159
vt 0.359760 0.926570
vt 0.359760 0.965108
vt 0.382072 0.733552
vt 0.350835 0.797451
vt 0.349553 0.812990
vt 0.375910 0.786994
vt 0.341350 0.809859
vt 0.338503 0.792166
vt 0.338503 0.714441
vt 0.379220 0.732329
vt 0.346725 0.795689
vt 0.654859 0.926570
vt 0.656950 0.955652
vt 0.638363 0.955652
vt 0.850012 0.305715
vt 0.841146 0.260509
vt 0.913664 0.260509
vt 0.056353 0.971141
vt 0.028858 0.971142
vt 0.032125 0.926570
vt 0.045971 0.926570
vt 0.557274 0.730862
vt 0.567405 0.714441
vt 0.577197 0.731059
vt 0.587321 0.715318
vt 0.597120 0.731256
vt 0.607255 0.714441
vt 0.617043 0.731453
vt 0.598126 0.811080
vt 0.570672 0.810809
vt 0.504424 0.963730
vt 0.489998 0.953098
vt 0.504424 0.926570
vt 0.580647 0.956744
vt 0.562140 0.955030
vt 0.580647 0.926570
vt 0.848573 0.069334
vt 0.848518 0.058339
vt 0.841146 0.028858
vt 0.917169 0.028858
vt 0.933336 0.039831
vt 0.902092 0.070795
vt 0.933118 0.071450
vt 0.917406 0.076393
vt 0.287178 0.958299
vt 0.275669 0.967208
vt 0.275669 0.926570
vt 0.432282 0.926570
vt 0.432282 0.964946
vt 0.417477 0.956884
vt 0.218135 0.781713
vt 0.232299 0.742185
vt 0.260107 0.782909
vt 0.242383 0.714441
vt 0.198644 0.716374
vt 0.230036 0.821961
vt 0.183643 0.805372
vt 0.185042 0.756068
vt 0.770430 0.038777
vt 0.780833 0.080209
vt 0.713689 0.066399
vt 0.294149 0.620480
vt 0.250908 0.627365
vt 0.266352 0.556577
vt 0.754336 0.257746
vt 0.760649 0.288494
vt 0.694195 0.302014
vt 0.745510 0.494622
vt 0.758718 0.522626
vt 0.676768 0.522626
vt 0.744725 0.411096
vt 0.750329 0.447730
vt 0.669356 0.430789
vt 0.696842 0.028858
vt 0.314585 0.554744
vt 0.681536 0.255062
vt 0.669926 0.479778
vt 0.675275 0.394371
vt 0.246001 0.483704
vt 0.216257 0.465013
vt 0.258256 0.415278
vt 0.328060 0.480586
vt 0.289217 0.471866
vt 0.306489 0.413446
vt 0.605945 0.256775
vt 0.650073 0.292436
vt 0.544665 0.288779
vt 0.110069 0.827362
vt 0.070249 0.816610
vt 0.109631 0.765204
vt 0.650507 0.102645
vt 0.640284 0.144986
vt 0.580987 0.114968
vt 0.578071 0.156015
vt 0.544664 0.121409
vt 0.591939 0.421064
vt 0.601003 0.458411
vt 0.544664 0.464043
vt 0.061897 0.752949
vt 0.095859 0.719055
vt 0.028858 0.806513
vt 0.054725 0.714441
vt 0.557324 0.335731
vt 0.627483 0.336655
vt 0.275386 0.384312
vt 0.564141 0.077428
vt 0.626353 0.066399
vt 0.722298 0.114968
vt 0.719382 0.156015
vt 0.592862 0.500330
vt 0.028858 0.868854
vt 0.865528 0.497805
vt 0.841146 0.461357
vt 0.903969 0.468928
vt 0.221261 0.552341
vt 0.665308 0.213731
vt 0.747095 0.215936
vt 0.698451 0.336655
vt 0.328060 0.619299
vt 0.212446 0.617497
vt 0.783430 0.112115
vt 0.167785 0.772687
vt 0.171026 0.735404
vt 0.167785 0.819539
vt 0.195303 0.845657
vt 0.238534 0.850165
vt 0.267311 0.827410
vt 0.280787 0.790432
vt 0.266878 0.749055
vt 0.891587 0.561082
vt 0.901370 0.569064
vt 0.841147 0.602580
vt 0.897342 0.762315
vt 0.897342 0.811569
vt 0.850278 0.800047
vt 0.841146 0.787866
vt 0.848307 0.776176
vt 0.841147 0.555521
vt 0.911343 0.461357
vt 0.714015 0.772559
vt 0.674759 0.758024
vt 0.715087 0.729646
vt 0.423958 0.038788
vt 0.478353 0.046722
vt 0.446306 0.077421
vt 0.754707 0.758369
vt 0.738623 0.805786
vt 0.689292 0.805041
vt 0.367206 0.066361
vt 0.153965 0.599207
vt 0.118957 0.611947
vt 0.154730 0.532397
vt 0.396691 0.297071
vt 0.329271 0.322219
vt 0.323154 0.279261
vt 0.154730 0.431175
vt 0.099195 0.437882
vt 0.134843 0.391715
vt 0.922729 0.134109
vt 0.922729 0.202793
vt 0.887899 0.140570
vt 0.304022 0.102618
vt 0.293789 0.144938
vt 0.234501 0.114932
vt 0.231582 0.155998
vt 0.198177 0.121367
vt 0.879051 0.189052
vt 0.842824 0.157577
vt 0.841146 0.198930
vt 0.148376 0.969184
vt 0.114070 0.935232
vt 0.148376 0.926570
vt 0.217663 0.077409
vt 0.375808 0.114931
vt 0.323417 0.230266
vt 0.230218 0.254839
vt 0.246180 0.219230
vt 0.232623 0.323488
vt 0.110366 0.530537
vt 0.406938 0.253972
vt 0.078469 0.596038
vt 0.062366 0.278533
vt 0.028858 0.259567
vt 0.040062 0.194779
vt 0.464822 0.281314
vt 0.416827 0.323488
vt 0.120566 0.656725
vt 0.075100 0.656643
vt 0.486948 0.095252
vt 0.096666 0.326596
vt 0.051761 0.320706
vt 0.438586 0.121380
vt 0.105251 0.269597
vt 0.133231 0.200620
vt 0.140461 0.278447
vt 0.084963 0.200678
vt 0.372890 0.155998
vt 0.062303 0.523141
vt 0.053031 0.415524
vt 0.086740 0.384312
vt 0.069809 0.097627
vt 0.082067 0.059177
vt 0.140461 0.098661
vt 0.279870 0.066349
vt 0.217656 0.077369
vt 0.038268 0.107334
vt 0.100326 0.028858
vt 0.130335 0.059119
vt 0.901386 0.704599
vt 0.859990 0.704599
vt 0.889952 0.667135
vt 0.134803 0.391709
vt 0.841146 0.660296
vt 0.231575 0.155958
vt 0.350372 0.028858
vt 0.028858 0.513027
vt 0.041149 0.599973
vt 0.397139 0.213714
vt 0.465088 0.232315
vt 0.385776 0.384312
vt 0.389885 0.489604
vt 0.413734 0.565635
vt 0.431689 0.565615
vt 0.455536 0.389745
vt 0.455536 0.484949
vt 0.198177 0.261412
vt 0.754707 0.714441
vt 0.696636 0.621802
vt 0.698085 0.603931
vt 0.636388 0.583184
vt 0.544664 0.580342
vt 0.544664 0.650300
vt 0.624080 0.646396
s 0
usemtl Material.001
f 5/1/1 2/2/1 6/3/1
f 5/4/2 6/5/2 4/6/2 3/7/2
f 2/8/3 5/9/3 3/10/3 1/11/3 12/12/3 7/13/3 11/14/3 9/15/3 10/16/3
f 12/17/4 8/18/4 7/19/4
f 7/20/5 8/21/5 11/22/5
f 6/23/6 2/24/6 10/25/6 8/26/6 12/27/6 1/28/6 3/29/6 4/30/6
f 9/31/7 8/26/7 10/25/7
f 8/32/8 9/33/8 11/34/8
f 17/35/9 18/36/9 14/37/9
f 17/38/10 15/39/10 16/40/10 18/41/10
f 14/42/11 22/43/11 21/44/11 23/45/11 19/46/11 24/47/11 13/48/11 15/49/11 17/50/11
f 24/51/12 19/52/12 20/53/12
f 19/54/13 23/55/13 20/56/13
f 18/57/14 16/58/14 15/59/14 13/60/14 24/61/14 20/62/14 22/63/14 14/64/14
f 21/65/15 22/66/15 20/67/15
f 20/68/16 23/69/16 21/70/16
f 25/71/17 38/72/17 37/73/17
f 26/74/18 38/72/18 40/75/18
f 25/71/19 37/73/19 42/76/19
f 25/71/20 42/76/20 44/77/20
f 25/71/21 44/77/21 41/78/21
f 26/79/22 40/80/22 47/81/22
f 27/82/23 39/83/23 49/84/23
f 28/85/24 43/86/24 51/87/24
f 29/88/25 45/89/25 53/90/25
f 30/91/26 46/92/26 55/93/26
f 26/79/27 47/81/27 50/94/27
f 27/82/28 49/84/28 52/95/28
f 28/85/29 51/87/29 54/96/29
f 29/88/30 53/90/30 56/97/30
f 30/91/31 55/93/31 48/98/31
f 31/99/32 57/100/32 62/101/32
f 32/102/33 58/103/33 64/104/33
f 33/105/34 59/106/34 65/107/34
f 34/108/35 60/109/35 66/110/35
f 35/111/36 61/112/36 63/113/36
f 63/113/37 66/114/37 36/115/37
f 63/113/38 61/112/38 66/114/38
f 61/116/39 34/117/39 66/118/39
f 66/110/40 65/119/40 36/120/40
f 66/110/41 60/109/41 65/119/41
f 60/109/42 33/121/42 65/119/42
f 65/119/43 64/122/43 36/120/43
f 65/107/44 59/106/44 64/123/44
f 59/106/45 32/124/45 64/123/45
f 64/104/46 62/101/46 36/125/46
f 64/104/47 58/103/47 62/101/47
f 58/103/48 31/99/48 62/101/48
f 62/126/49 63/113/49 36/115/49
f 62/126/50 57/127/50 63/113/50
f 57/127/51 35/111/51 63/113/51
f 48/128/52 61/112/52 35/111/52
f 48/128/53 55/129/53 61/112/53
f 55/93/54 34/117/54 61/116/54
f 56/97/55 60/130/55 34/117/55
f 56/97/56 53/90/56 60/130/56
f 53/131/57 33/121/57 60/109/57
f 54/96/58 59/106/58 33/105/58
f 51/132/59 59/133/59 67/134/59
f 51/87/60 32/124/60 59/106/60
f 52/95/61 58/103/61 32/102/61
f 52/95/62 49/84/62 58/103/62
f 49/84/63 31/99/63 58/103/63
f 50/135/64 57/100/64 31/99/64
f 50/94/65 47/81/65 57/127/65
f 47/81/66 35/111/66 57/127/66
f 55/93/67 56/97/67 34/117/67
f 55/93/68 46/92/68 56/97/68
f 46/92/69 29/88/69 56/97/69
f 53/136/70 54/96/70 33/105/70
f 53/136/71 45/137/71 54/96/71
f 45/137/72 28/85/72 54/96/72
f 51/87/73 52/138/73 32/124/73
f 51/87/74 43/86/74 52/138/74
f 43/139/75 27/82/75 52/95/75
f 49/84/76 50/135/76 31/99/76
f 49/84/77 39/83/77 50/135/77
f 39/83/78 26/140/78 50/135/78
f 47/81/79 48/128/79 35/111/79
f 47/81/80 40/80/80 48/128/80
f 40/80/81 30/141/81 48/128/81
f 41/78/82 46/142/82 30/143/82
f 41/78/83 44/77/83 46/142/83
f 44/77/84 29/144/84 46/142/84
f 44/77/85 45/145/85 29/144/85
f 44/77/86 42/76/86 45/145/86
f 42/76/87 28/146/87 45/145/87
f 42/76/88 43/147/88 28/146/88
f 42/76/89 37/73/89 43/147/89
f 37/73/90 27/148/90 43/147/90
f 40/75/91 41/78/91 30/143/91
f 40/75/92 38/72/92 41/78/92
f 38/72/93 25/71/93 41/78/93
f 37/73/94 39/149/94 27/148/94
f 37/73/95 38/72/95 39/149/95
f 38/72/96 26/74/96 39/149/96
f 68/150/97 69/151/97 59/152/97
f 54/153/98 51/154/98 67/155/98 69/156/98 68/157/98
f 59/152/99 54/158/99 68/150/99
f 69/159/100 67/134/100 59/133/100
f 70/160/101 79/161/101 78/162/101
f 71/163/102 79/164/102 81/165/102
f 70/160/103 78/162/103 121/166/103
f 70/160/104 121/166/104 82/167/104
f 70/160/105 82/167/105 105/168/105
f 81/165/106 109/169/106 71/163/106
f 73/170/107 83/171/107 86/172/107
f 73/173/108 86/174/108 88/175/108
f 74/176/109 90/177/109 95/178/109
f 75/179/110 74/180/110 96/181/110
f 76/182/111 91/183/111 93/184/111
f 93/184/112 96/185/112 77/186/112
f 96/181/113 95/187/113 77/188/113
f 96/181/114 74/180/114 95/187/114
f 95/187/115 94/189/115 77/188/115
f 94/190/116 92/191/116 77/192/116
f 92/193/117 93/184/117 77/186/117
f 108/194/118 91/183/118 76/182/118
f 122/195/119 75/196/119 91/197/119
f 88/175/120 74/198/120 75/196/120
f 88/175/121 86/174/121 74/198/121
f 87/199/122 90/177/122 74/176/122
f 122/195/123 88/175/123 75/196/123
f 88/175/124 122/195/124 106/200/124
f 106/200/125 73/173/125 88/175/125
f 86/172/126 87/199/126 74/176/126
f 86/172/127 83/171/127 87/199/127
f 83/171/128 72/201/128 87/199/128
f 80/202/129 71/203/129 84/204/129
f 82/205/130 73/173/130 106/200/130
f 82/205/131 83/206/131 73/173/131
f 82/207/132 121/208/132 83/171/132
f 121/208/133 72/201/133 83/171/133
f 79/164/134 105/209/134 81/165/134
f 79/161/135 70/160/135 105/168/135
f 78/210/136 79/211/136 80/202/136
f 79/211/137 71/203/137 80/202/137
f 101/212/138 81/165/138 105/209/138
f 101/212/139 108/194/139 81/165/139
f 102/213/140 110/214/140 107/215/140
f 80/202/141 84/204/141 111/216/141
f 101/212/142 122/217/142 108/194/142
f 72/201/143 85/218/143 87/199/143
f 102/213/144 111/216/144 110/214/144
f 103/219/145 115/220/145 90/177/145
f 104/221/146 116/222/146 103/223/146
f 76/182/147 93/184/147 112/224/147
f 93/184/148 77/186/148 116/225/148
f 93/184/149 116/225/149 112/224/149
f 112/226/150 116/222/150 104/221/150
f 116/222/151 77/227/151 115/228/151
f 116/222/152 115/228/152 103/223/152
f 115/229/153 77/230/153 114/231/153
f 115/220/154 114/232/154 90/177/154
f 114/231/155 77/230/155 113/233/155
f 113/234/156 77/186/156 93/184/156
f 113/234/157 93/184/157 91/183/157
f 109/169/158 76/182/158 112/224/158
f 109/169/159 112/224/159 84/235/159
f 84/204/160 112/226/160 104/221/160
f 111/216/161 104/221/161 103/223/161
f 111/216/162 103/223/162 110/214/162
f 85/218/163 103/219/163 90/177/163
f 85/218/164 90/177/164 87/199/164
f 122/217/165 91/183/165 108/194/165
f 84/204/166 104/221/166 111/216/166
f 111/216/167 102/213/167 80/202/167
f 110/236/168 103/219/168 85/218/168
f 110/236/169 85/218/169 107/237/169
f 107/237/170 85/218/170 72/201/170
f 106/200/171 122/195/171 101/238/171
f 108/194/172 76/182/172 109/169/172
f 108/194/173 109/169/173 81/165/173
f 78/210/174 102/213/174 107/215/174
f 121/208/175 107/237/175 72/201/175
f 84/235/176 71/163/176 109/169/176
f 82/205/177 106/200/177 105/239/177
f 105/239/178 106/200/178 101/238/178
f 103/240/179 120/241/179 117/242/179 119/243/179
f 104/244/180 103/240/180 119/243/180 118/245/180
f 96/246/181 91/197/181 75/196/181
f 78/210/182 80/202/182 102/213/182
f 121/166/183 78/162/183 107/247/183
f 103/240/184 124/243/184 117/242/184 125/241/184
f 104/244/185 123/245/185 124/243/185 103/240/185
f 103/240/186 125/241/186 120/241/186
f 117/242/187 120/241/187 125/241/187
f 117/242/188 124/243/188 119/243/188
f 119/243/189 124/243/189 123/245/189 118/245/189
f 104/244/190 118/245/190 123/245/190
f 99/248/191 97/249/191 100/250/191 74/251/191 75/252/191 98/253/191
f 99/248/192 126/253/192 75/252/192 74/251/192 127/250/192 97/249/192
f 97/249/193 127/250/193 100/250/193
f 100/250/194 127/250/194 74/251/194
f 75/252/195 126/253/195 98/253/195
f 98/253/196 126/253/196 99/248/196
